<svg width="152" height="43" viewBox="0 0 152 43" fill="none" xmlns="http://www.w3.org/2000/svg">
<g filter="url(#filter0_dd_4453_106)">
<mask id="path-1-outside-1_4453_106" maskUnits="userSpaceOnUse" x="4" y="0" width="144" height="35" fill="black">
<rect fill="white" x="4" width="144" height="35"/>
<path d="M5 7.73727V33.6084H8.75838V14.8746H9.00127L16.7226 33.5705H19.8418L27.5631 14.8872H27.806V33.6084H31.5643V7.73727H26.7705L18.4356 27.848H18.1288L9.79385 7.73727H5Z"/>
<path d="M46.1313 34C50.4138 34 53.4435 31.9157 54.3128 28.7576L50.695 28.1133C50.0047 29.945 48.3428 30.8798 46.1696 30.8798C42.897 30.8798 40.6982 28.7828 40.596 25.0436H54.5557V23.7046C54.5557 16.6936 50.3115 13.9524 45.8628 13.9524C40.3914 13.9524 36.7864 18.0706 36.7864 24.033C36.7864 30.0587 40.3403 34 46.1313 34ZM40.6088 22.214C40.7622 19.4601 42.782 17.0726 45.8884 17.0726C48.8542 17.0726 50.7973 19.2454 50.8101 22.214H40.6088Z"/>
<path d="M73.5106 18.9422C72.718 15.9231 70.3275 13.9524 66.0833 13.9524C61.6474 13.9524 58.5026 16.2641 58.5026 19.7001C58.5026 22.454 60.19 24.2857 63.8717 25.0942L67.1955 25.8142C69.0874 26.2311 69.9695 27.0648 69.9695 28.2775C69.9695 29.7808 68.346 30.9556 65.8404 30.9556C63.5521 30.9556 62.082 29.9829 61.6218 28.0754L57.9273 28.6312C58.5665 32.0672 61.4556 34 65.866 34C70.6087 34 73.8941 31.5114 73.8941 27.9996C73.8941 25.2584 72.1299 23.5657 68.525 22.7445L65.4058 22.0371C63.2453 21.5318 62.3121 20.8118 62.3249 19.498C62.3121 18.0074 63.9484 16.9463 66.1216 16.9463C68.4994 16.9463 69.5988 18.2474 70.0462 19.5486L73.5106 18.9422Z"/>
<path d="M87.2625 14.2051H83.2357V9.55633H79.4134V14.2051H76.5371V17.2368H79.4134V28.6944C79.4006 32.2188 82.1235 33.9242 85.1405 33.861C86.3549 33.8484 87.1731 33.621 87.6205 33.4568L86.9302 30.3366C86.6745 30.3871 86.2015 30.5008 85.5879 30.5008C84.3479 30.5008 83.2357 30.0966 83.2357 27.9112V17.2368H87.2625V14.2051Z"/>
<path d="M99.5508 34C105.086 34 108.704 29.9955 108.704 23.9951C108.704 17.9569 105.086 13.9524 99.5508 13.9524C94.0155 13.9524 90.3977 17.9569 90.3977 23.9951C90.3977 29.9955 94.0155 34 99.5508 34ZM99.5636 30.8293C95.9458 30.8293 94.2584 27.7091 94.2584 23.9825C94.2584 20.2686 95.9458 17.1105 99.5636 17.1105C103.156 17.1105 104.843 20.2686 104.843 23.9825C104.843 27.7091 103.156 30.8293 99.5636 30.8293Z"/>
<path d="M112.176 9.8932H113.233V6.52456H115.142C115.219 6.52456 115.291 6.52456 115.364 6.52035L117.205 9.8932H118.432L116.459 6.33087C117.571 5.95611 118.091 5.05921 118.091 3.91387C118.091 2.38956 117.171 1.26949 115.125 1.26949H112.176V9.8932ZM113.233 5.58135V2.19587H115.091C116.506 2.19587 117.051 2.87801 117.051 3.91387C117.051 4.94973 116.506 5.58135 115.108 5.58135H113.233Z"/>
<path d="M123.84 7.24882C123.84 8.46153 122.903 9.01735 122.153 9.01735C121.318 9.01735 120.721 8.411 120.721 7.46778V3.42542H119.716V7.53515C119.716 9.18579 120.602 9.97742 121.829 9.97742C122.818 9.97742 123.465 9.45528 123.772 8.79839H123.84V9.8932H124.846V3.42542H123.84V7.24882Z"/>
<path d="M131.324 4.87393C131.009 3.95598 130.301 3.3412 129.006 3.3412C127.625 3.3412 126.603 4.11599 126.603 5.21079C126.603 6.10348 127.14 6.70142 128.341 6.97933L129.432 7.23198C130.093 7.38357 130.404 7.69516 130.404 8.14151C130.404 8.69733 129.807 9.1521 128.87 9.1521C128.047 9.1521 127.532 8.8026 127.353 8.10782L126.398 8.34363C126.633 9.44264 127.549 10.0279 128.887 10.0279C130.408 10.0279 131.443 9.20684 131.443 8.09098C131.443 7.18987 130.872 6.62141 129.705 6.33929L128.733 6.10348C127.958 5.914 127.608 5.65714 127.608 5.16027C127.608 4.60444 128.205 4.2002 129.006 4.2002C129.884 4.2002 130.246 4.68023 130.421 5.12658L131.324 4.87393Z"/>
<path d="M137.593 4.87393C137.278 3.95598 136.571 3.3412 135.275 3.3412C133.895 3.3412 132.872 4.11599 132.872 5.21079C132.872 6.10348 133.409 6.70142 134.611 6.97933L135.701 7.23198C136.362 7.38357 136.673 7.69516 136.673 8.14151C136.673 8.69733 136.076 9.1521 135.139 9.1521C134.317 9.1521 133.801 8.8026 133.622 8.10782L132.667 8.34363C132.902 9.44264 133.818 10.0279 135.156 10.0279C136.677 10.0279 137.713 9.20684 137.713 8.09098C137.713 7.18987 137.142 6.62141 135.974 6.33929L135.003 6.10348C134.227 5.914 133.878 5.65714 133.878 5.16027C133.878 4.60444 134.474 4.2002 135.275 4.2002C136.153 4.2002 136.515 4.68023 136.69 5.12658L137.593 4.87393Z"/>
<path d="M139.227 9.8932H140.232V3.42542H139.227V9.8932ZM139.738 2.34745C140.13 2.34745 140.454 2.04428 140.454 1.67373C140.454 1.30318 140.13 1 139.738 1C139.346 1 139.022 1.30318 139.022 1.67373C139.022 2.04428 139.346 2.34745 139.738 2.34745Z"/>
<path d="M144 10.0448C145.142 10.0448 145.739 9.43843 145.943 9.01735H145.994V9.8932H147V5.63187C147 3.57701 145.415 3.3412 144.58 3.3412C143.591 3.3412 142.466 3.67807 141.955 4.85709L142.909 5.19395C143.131 4.72234 143.655 4.21705 144.614 4.21705C145.538 4.21705 145.994 4.70129 145.994 5.53082V5.5645C145.994 6.04453 145.5 6.00242 144.307 6.15401C143.092 6.30981 141.767 6.57509 141.767 8.05729C141.767 9.32053 142.756 10.0448 144 10.0448ZM144.154 9.1521C143.352 9.1521 142.773 8.79839 142.773 8.10782C142.773 7.34988 143.472 7.11407 144.256 7.01302C144.682 6.96249 145.824 6.84458 145.994 6.64247V7.552C145.994 8.36047 145.347 9.1521 144.154 9.1521Z"/>
</mask>
<path d="M5 7.73727V33.6084H8.75838V14.8746H9.00127L16.7226 33.5705H19.8418L27.5631 14.8872H27.806V33.6084H31.5643V7.73727H26.7705L18.4356 27.848H18.1288L9.79385 7.73727H5Z" fill="white"/>
<path d="M46.1313 34C50.4138 34 53.4435 31.9157 54.3128 28.7576L50.695 28.1133C50.0047 29.945 48.3428 30.8798 46.1696 30.8798C42.897 30.8798 40.6982 28.7828 40.596 25.0436H54.5557V23.7046C54.5557 16.6936 50.3115 13.9524 45.8628 13.9524C40.3914 13.9524 36.7864 18.0706 36.7864 24.033C36.7864 30.0587 40.3403 34 46.1313 34ZM40.6088 22.214C40.7622 19.4601 42.782 17.0726 45.8884 17.0726C48.8542 17.0726 50.7973 19.2454 50.8101 22.214H40.6088Z" fill="white"/>
<path d="M73.5106 18.9422C72.718 15.9231 70.3275 13.9524 66.0833 13.9524C61.6474 13.9524 58.5026 16.2641 58.5026 19.7001C58.5026 22.454 60.19 24.2857 63.8717 25.0942L67.1955 25.8142C69.0874 26.2311 69.9695 27.0648 69.9695 28.2775C69.9695 29.7808 68.346 30.9556 65.8404 30.9556C63.5521 30.9556 62.082 29.9829 61.6218 28.0754L57.9273 28.6312C58.5665 32.0672 61.4556 34 65.866 34C70.6087 34 73.8941 31.5114 73.8941 27.9996C73.8941 25.2584 72.1299 23.5657 68.525 22.7445L65.4058 22.0371C63.2453 21.5318 62.3121 20.8118 62.3249 19.498C62.3121 18.0074 63.9484 16.9463 66.1216 16.9463C68.4994 16.9463 69.5988 18.2474 70.0462 19.5486L73.5106 18.9422Z" fill="white"/>
<path d="M87.2625 14.2051H83.2357V9.55633H79.4134V14.2051H76.5371V17.2368H79.4134V28.6944C79.4006 32.2188 82.1235 33.9242 85.1405 33.861C86.3549 33.8484 87.1731 33.621 87.6205 33.4568L86.9302 30.3366C86.6745 30.3871 86.2015 30.5008 85.5879 30.5008C84.3479 30.5008 83.2357 30.0966 83.2357 27.9112V17.2368H87.2625V14.2051Z" fill="white"/>
<path d="M99.5508 34C105.086 34 108.704 29.9955 108.704 23.9951C108.704 17.9569 105.086 13.9524 99.5508 13.9524C94.0155 13.9524 90.3977 17.9569 90.3977 23.9951C90.3977 29.9955 94.0155 34 99.5508 34ZM99.5636 30.8293C95.9458 30.8293 94.2584 27.7091 94.2584 23.9825C94.2584 20.2686 95.9458 17.1105 99.5636 17.1105C103.156 17.1105 104.843 20.2686 104.843 23.9825C104.843 27.7091 103.156 30.8293 99.5636 30.8293Z" fill="white"/>
<path d="M112.176 9.8932H113.233V6.52456H115.142C115.219 6.52456 115.291 6.52456 115.364 6.52035L117.205 9.8932H118.432L116.459 6.33087C117.571 5.95611 118.091 5.05921 118.091 3.91387C118.091 2.38956 117.171 1.26949 115.125 1.26949H112.176V9.8932ZM113.233 5.58135V2.19587H115.091C116.506 2.19587 117.051 2.87801 117.051 3.91387C117.051 4.94973 116.506 5.58135 115.108 5.58135H113.233Z" fill="white"/>
<path d="M123.84 7.24882C123.84 8.46153 122.903 9.01735 122.153 9.01735C121.318 9.01735 120.721 8.411 120.721 7.46778V3.42542H119.716V7.53515C119.716 9.18579 120.602 9.97742 121.829 9.97742C122.818 9.97742 123.465 9.45528 123.772 8.79839H123.84V9.8932H124.846V3.42542H123.84V7.24882Z" fill="white"/>
<path d="M131.324 4.87393C131.009 3.95598 130.301 3.3412 129.006 3.3412C127.625 3.3412 126.603 4.11599 126.603 5.21079C126.603 6.10348 127.14 6.70142 128.341 6.97933L129.432 7.23198C130.093 7.38357 130.404 7.69516 130.404 8.14151C130.404 8.69733 129.807 9.1521 128.87 9.1521C128.047 9.1521 127.532 8.8026 127.353 8.10782L126.398 8.34363C126.633 9.44264 127.549 10.0279 128.887 10.0279C130.408 10.0279 131.443 9.20684 131.443 8.09098C131.443 7.18987 130.872 6.62141 129.705 6.33929L128.733 6.10348C127.958 5.914 127.608 5.65714 127.608 5.16027C127.608 4.60444 128.205 4.2002 129.006 4.2002C129.884 4.2002 130.246 4.68023 130.421 5.12658L131.324 4.87393Z" fill="white"/>
<path d="M137.593 4.87393C137.278 3.95598 136.571 3.3412 135.275 3.3412C133.895 3.3412 132.872 4.11599 132.872 5.21079C132.872 6.10348 133.409 6.70142 134.611 6.97933L135.701 7.23198C136.362 7.38357 136.673 7.69516 136.673 8.14151C136.673 8.69733 136.076 9.1521 135.139 9.1521C134.317 9.1521 133.801 8.8026 133.622 8.10782L132.667 8.34363C132.902 9.44264 133.818 10.0279 135.156 10.0279C136.677 10.0279 137.713 9.20684 137.713 8.09098C137.713 7.18987 137.142 6.62141 135.974 6.33929L135.003 6.10348C134.227 5.914 133.878 5.65714 133.878 5.16027C133.878 4.60444 134.474 4.2002 135.275 4.2002C136.153 4.2002 136.515 4.68023 136.69 5.12658L137.593 4.87393Z" fill="white"/>
<path d="M139.227 9.8932H140.232V3.42542H139.227V9.8932ZM139.738 2.34745C140.13 2.34745 140.454 2.04428 140.454 1.67373C140.454 1.30318 140.13 1 139.738 1C139.346 1 139.022 1.30318 139.022 1.67373C139.022 2.04428 139.346 2.34745 139.738 2.34745Z" fill="white"/>
<path d="M144 10.0448C145.142 10.0448 145.739 9.43843 145.943 9.01735H145.994V9.8932H147V5.63187C147 3.57701 145.415 3.3412 144.58 3.3412C143.591 3.3412 142.466 3.67807 141.955 4.85709L142.909 5.19395C143.131 4.72234 143.655 4.21705 144.614 4.21705C145.538 4.21705 145.994 4.70129 145.994 5.53082V5.5645C145.994 6.04453 145.5 6.00242 144.307 6.15401C143.092 6.30981 141.767 6.57509 141.767 8.05729C141.767 9.32053 142.756 10.0448 144 10.0448ZM144.154 9.1521C143.352 9.1521 142.773 8.79839 142.773 8.10782C142.773 7.34988 143.472 7.11407 144.256 7.01302C144.682 6.96249 145.824 6.84458 145.994 6.64247V7.552C145.994 8.36047 145.347 9.1521 144.154 9.1521Z" fill="white"/>
<path d="M5 7.73727V33.6084H8.75838V14.8746H9.00127L16.7226 33.5705H19.8418L27.5631 14.8872H27.806V33.6084H31.5643V7.73727H26.7705L18.4356 27.848H18.1288L9.79385 7.73727H5Z" stroke="black" stroke-width="2" mask="url(#path-1-outside-1_4453_106)"/>
<path d="M46.1313 34C50.4138 34 53.4435 31.9157 54.3128 28.7576L50.695 28.1133C50.0047 29.945 48.3428 30.8798 46.1696 30.8798C42.897 30.8798 40.6982 28.7828 40.596 25.0436H54.5557V23.7046C54.5557 16.6936 50.3115 13.9524 45.8628 13.9524C40.3914 13.9524 36.7864 18.0706 36.7864 24.033C36.7864 30.0587 40.3403 34 46.1313 34ZM40.6088 22.214C40.7622 19.4601 42.782 17.0726 45.8884 17.0726C48.8542 17.0726 50.7973 19.2454 50.8101 22.214H40.6088Z" stroke="black" stroke-width="2" mask="url(#path-1-outside-1_4453_106)"/>
<path d="M73.5106 18.9422C72.718 15.9231 70.3275 13.9524 66.0833 13.9524C61.6474 13.9524 58.5026 16.2641 58.5026 19.7001C58.5026 22.454 60.19 24.2857 63.8717 25.0942L67.1955 25.8142C69.0874 26.2311 69.9695 27.0648 69.9695 28.2775C69.9695 29.7808 68.346 30.9556 65.8404 30.9556C63.5521 30.9556 62.082 29.9829 61.6218 28.0754L57.9273 28.6312C58.5665 32.0672 61.4556 34 65.866 34C70.6087 34 73.8941 31.5114 73.8941 27.9996C73.8941 25.2584 72.1299 23.5657 68.525 22.7445L65.4058 22.0371C63.2453 21.5318 62.3121 20.8118 62.3249 19.498C62.3121 18.0074 63.9484 16.9463 66.1216 16.9463C68.4994 16.9463 69.5988 18.2474 70.0462 19.5486L73.5106 18.9422Z" stroke="black" stroke-width="2" mask="url(#path-1-outside-1_4453_106)"/>
<path d="M87.2625 14.2051H83.2357V9.55633H79.4134V14.2051H76.5371V17.2368H79.4134V28.6944C79.4006 32.2188 82.1235 33.9242 85.1405 33.861C86.3549 33.8484 87.1731 33.621 87.6205 33.4568L86.9302 30.3366C86.6745 30.3871 86.2015 30.5008 85.5879 30.5008C84.3479 30.5008 83.2357 30.0966 83.2357 27.9112V17.2368H87.2625V14.2051Z" stroke="black" stroke-width="2" mask="url(#path-1-outside-1_4453_106)"/>
<path d="M99.5508 34C105.086 34 108.704 29.9955 108.704 23.9951C108.704 17.9569 105.086 13.9524 99.5508 13.9524C94.0155 13.9524 90.3977 17.9569 90.3977 23.9951C90.3977 29.9955 94.0155 34 99.5508 34ZM99.5636 30.8293C95.9458 30.8293 94.2584 27.7091 94.2584 23.9825C94.2584 20.2686 95.9458 17.1105 99.5636 17.1105C103.156 17.1105 104.843 20.2686 104.843 23.9825C104.843 27.7091 103.156 30.8293 99.5636 30.8293Z" stroke="black" stroke-width="2" mask="url(#path-1-outside-1_4453_106)"/>
<path d="M112.176 9.8932H113.233V6.52456H115.142C115.219 6.52456 115.291 6.52456 115.364 6.52035L117.205 9.8932H118.432L116.459 6.33087C117.571 5.95611 118.091 5.05921 118.091 3.91387C118.091 2.38956 117.171 1.26949 115.125 1.26949H112.176V9.8932ZM113.233 5.58135V2.19587H115.091C116.506 2.19587 117.051 2.87801 117.051 3.91387C117.051 4.94973 116.506 5.58135 115.108 5.58135H113.233Z" stroke="black" stroke-width="2" mask="url(#path-1-outside-1_4453_106)"/>
<path d="M123.84 7.24882C123.84 8.46153 122.903 9.01735 122.153 9.01735C121.318 9.01735 120.721 8.411 120.721 7.46778V3.42542H119.716V7.53515C119.716 9.18579 120.602 9.97742 121.829 9.97742C122.818 9.97742 123.465 9.45528 123.772 8.79839H123.84V9.8932H124.846V3.42542H123.84V7.24882Z" stroke="black" stroke-width="2" mask="url(#path-1-outside-1_4453_106)"/>
<path d="M131.324 4.87393C131.009 3.95598 130.301 3.3412 129.006 3.3412C127.625 3.3412 126.603 4.11599 126.603 5.21079C126.603 6.10348 127.14 6.70142 128.341 6.97933L129.432 7.23198C130.093 7.38357 130.404 7.69516 130.404 8.14151C130.404 8.69733 129.807 9.1521 128.87 9.1521C128.047 9.1521 127.532 8.8026 127.353 8.10782L126.398 8.34363C126.633 9.44264 127.549 10.0279 128.887 10.0279C130.408 10.0279 131.443 9.20684 131.443 8.09098C131.443 7.18987 130.872 6.62141 129.705 6.33929L128.733 6.10348C127.958 5.914 127.608 5.65714 127.608 5.16027C127.608 4.60444 128.205 4.2002 129.006 4.2002C129.884 4.2002 130.246 4.68023 130.421 5.12658L131.324 4.87393Z" stroke="black" stroke-width="2" mask="url(#path-1-outside-1_4453_106)"/>
<path d="M137.593 4.87393C137.278 3.95598 136.571 3.3412 135.275 3.3412C133.895 3.3412 132.872 4.11599 132.872 5.21079C132.872 6.10348 133.409 6.70142 134.611 6.97933L135.701 7.23198C136.362 7.38357 136.673 7.69516 136.673 8.14151C136.673 8.69733 136.076 9.1521 135.139 9.1521C134.317 9.1521 133.801 8.8026 133.622 8.10782L132.667 8.34363C132.902 9.44264 133.818 10.0279 135.156 10.0279C136.677 10.0279 137.713 9.20684 137.713 8.09098C137.713 7.18987 137.142 6.62141 135.974 6.33929L135.003 6.10348C134.227 5.914 133.878 5.65714 133.878 5.16027C133.878 4.60444 134.474 4.2002 135.275 4.2002C136.153 4.2002 136.515 4.68023 136.69 5.12658L137.593 4.87393Z" stroke="black" stroke-width="2" mask="url(#path-1-outside-1_4453_106)"/>
<path d="M139.227 9.8932H140.232V3.42542H139.227V9.8932ZM139.738 2.34745C140.13 2.34745 140.454 2.04428 140.454 1.67373C140.454 1.30318 140.13 1 139.738 1C139.346 1 139.022 1.30318 139.022 1.67373C139.022 2.04428 139.346 2.34745 139.738 2.34745Z" stroke="black" stroke-width="2" mask="url(#path-1-outside-1_4453_106)"/>
<path d="M144 10.0448C145.142 10.0448 145.739 9.43843 145.943 9.01735H145.994V9.8932H147V5.63187C147 3.57701 145.415 3.3412 144.58 3.3412C143.591 3.3412 142.466 3.67807 141.955 4.85709L142.909 5.19395C143.131 4.72234 143.655 4.21705 144.614 4.21705C145.538 4.21705 145.994 4.70129 145.994 5.53082V5.5645C145.994 6.04453 145.5 6.00242 144.307 6.15401C143.092 6.30981 141.767 6.57509 141.767 8.05729C141.767 9.32053 142.756 10.0448 144 10.0448ZM144.154 9.1521C143.352 9.1521 142.773 8.79839 142.773 8.10782C142.773 7.34988 143.472 7.11407 144.256 7.01302C144.682 6.96249 145.824 6.84458 145.994 6.64247V7.552C145.994 8.36047 145.347 9.1521 144.154 9.1521Z" stroke="black" stroke-width="2" mask="url(#path-1-outside-1_4453_106)"/>
</g>
<defs>
<filter id="filter0_dd_4453_106" x="0" y="0" width="152" height="43" filterUnits="userSpaceOnUse" color-interpolation-filters="sRGB">
<feFlood flood-opacity="0" result="BackgroundImageFix"/>
<feColorMatrix in="SourceAlpha" type="matrix" values="0 0 0 0 0 0 0 0 0 0 0 0 0 0 0 0 0 0 127 0" result="hardAlpha"/>
<feOffset dy="4"/>
<feGaussianBlur stdDeviation="2"/>
<feComposite in2="hardAlpha" operator="out"/>
<feColorMatrix type="matrix" values="0 0 0 0 0 0 0 0 0 0 0 0 0 0 0 0 0 0 0.25 0"/>
<feBlend mode="normal" in2="BackgroundImageFix" result="effect1_dropShadow_4453_106"/>
<feColorMatrix in="SourceAlpha" type="matrix" values="0 0 0 0 0 0 0 0 0 0 0 0 0 0 0 0 0 0 127 0" result="hardAlpha"/>
<feOffset dy="4"/>
<feGaussianBlur stdDeviation="2"/>
<feComposite in2="hardAlpha" operator="out"/>
<feColorMatrix type="matrix" values="0 0 0 0 0 0 0 0 0 0 0 0 0 0 0 0 0 0 0.25 0"/>
<feBlend mode="normal" in2="effect1_dropShadow_4453_106" result="effect2_dropShadow_4453_106"/>
<feBlend mode="normal" in="SourceGraphic" in2="effect2_dropShadow_4453_106" result="shape"/>
</filter>
</defs>
</svg>
